# xmcd CD database file
# Copyright (C) 1997 Ti Kan
#
# Track frame offsets:
#  183
#  13485
#  25845
#  39505
#  52113
#  64500
#  76045
#  89993
#  102628
#  115138
#  127205
#  138725
#  153180
#  162095
#  172188
#  183133
#  193110
#  203530
#  215950
#  227368
#  238100
#  250885
#  261110
#  273870
#
# Disc length: 3810 seconds
#
# Revision: 1
# Processed by: cddbd v1.4b41PL1 Copyright (c) Steve Scherf et al.
# Submitted via: CDWizzard Release:4.32
#
DISCID=5e0ee018
DTITLE=Taylor, Eddie and Jimmy Reed - Ride 'Em On Down
DYEAR=1900
DGENRE=
TTITLE0=Ride 'Em On Down
TTITLE1=Jimmy's Boogie (Jimmy Reed)
TTITLE2=Bad Boy
TTITLE3=High And Lonesome (Jimmy Reed)
TTITLE4=E.T. Blues
TTITLE5=I'm Gonna Ruin You (Jimmy Reed)
TTITLE6=Big Town Playboy
TTITLE7=My First Plea (Jimmy Reed)
TTITLE8=Don't Knock At My Door
TTITLE9=Honey Don't Let Me Go (Jimmy Reed)
TTITLE10=You'll Always Have A Home
TTITLE11=Honey Where You Going (Jimmy Reed)
TTITLE12=I'm Gonna Love You
TTITLE13=My Bitter Seed (Jimmy Reed)
TTITLE14=Lookin' For Trouble
TTITLE15=Ends And Odds (Jimmy Reed)
TTITLE16=Find My Baby
TTITLE17=String To Your Heart (Jimmy Reed)
TTITLE18=Stroll Out West
TTITLE19=You In That Sack (Jimmy Reed)
TTITLE20=I'm Sitting Here
TTITLE21=I Wanna Be Loved (Jimmy reed)
TTITLE22=Do You Want Me To Cry
TTITLE23=You Got Me Waiting (Jimmy Reed)
EXTD=
EXTT0=
EXTT1=
EXTT2=
EXTT3=
EXTT4=
EXTT5=
EXTT6=
EXTT7=
EXTT8=
EXTT9=
EXTT10=
EXTT11=
EXTT12=
EXTT13=
EXTT14=
EXTT15=
EXTT16=
EXTT17=
EXTT18=
EXTT19=
EXTT20=
EXTT21=
EXTT22=
EXTT23=
PLAYORDER=
